<?xml version="1.0" encoding="utf-8"?>
<!-- Generator: Adobe Illustrator 24.0.3, SVG Export Plug-In . SVG Version: 6.00 Build 0)  -->
<svg version="1.1" id="Layer_1" xmlns="http://www.w3.org/2000/svg" xmlns:xlink="http://www.w3.org/1999/xlink" x="0px" y="0px"
	 viewBox="0 0 1024 702.2" style="enable-background:new 0 0 1024 702.2;" xml:space="preserve">
<style type="text/css">
	.st0{clip-path:url(#Trazado_179_2_);}
	.st1{fill:none;stroke:#232438;}
	.st2{fill:none;stroke:#50D2C2;stroke-width:6;stroke-linecap:round;stroke-linejoin:round;stroke-miterlimit:10;}
	.st3{fill:none;stroke:#722BF4;stroke-width:6;stroke-miterlimit:10;}
	.st4{fill:none;stroke:#ED91FF;stroke-width:6;stroke-miterlimit:10;}
	.st5{opacity:0.5;clip-path:url(#Trazado_179_2_);}
	.st6{opacity:0.63;fill:#CCD3DD;enable-background:new    ;}
	.st7{fill:none;stroke:#50D2C2;stroke-width:0.25;stroke-linecap:round;stroke-linejoin:round;stroke-miterlimit:10;}
	.st8{opacity:0.63;clip-path:url(#Trazado_179_2_);fill:#CCD3DD;enable-background:new    ;}
	.st9{opacity:0.63;clip-path:url(#Trazado_179_2_);fill:none;stroke:#CCD3DD;stroke-miterlimit:10;enable-background:new    ;}
	.st10{clip-path:url(#Trazado_179_2_);fill:#FFFFFF;stroke:#FFFFFF;stroke-width:0.7228;stroke-miterlimit:10;}
</style>
<g>
	<defs>
		<path id="Trazado_179_1_" d="M12.7,664V40.6c0-14.3,16-25.8,35.7-25.8h927.1c19.7,0,35.7,11.6,35.7,25.8V664
			c0,14.3-16,25.8-35.7,25.8H48.3C28.6,689.8,12.7,678.3,12.7,664z"/>
	</defs>
	<clipPath id="Trazado_179_2_">
		<use xlink:href="#Trazado_179_1_"  style="overflow:visible;"/>
	</clipPath>
	<g id="Group-2" transform="translate(186.32 135.42)" class="st0">
		<g id="Grupo_239" transform="translate(0)">
			<path id="Trazado_179" class="st1" d="M-173.7,528.6V-94.8c0-14.3,16-25.8,35.7-25.8h927.1c19.7,0,35.7,11.6,35.7,25.8v623.4
				c0,14.3-16,25.8-35.7,25.8H-138C-157.7,554.4-173.7,542.8-173.7,528.6z"/>
		</g>
	</g>
	<g class="st0">
		<line class="st2" x1="54.8" y1="480.2" x2="659.1" y2="480.2"/>
		<line class="st2" x1="729.4" y1="480.2" x2="972.9" y2="480.2"/>
		<line class="st3" x1="54.8" y1="549.5" x2="750" y2="549.5"/>
		<line class="st3" x1="830.4" y1="549.5" x2="972.9" y2="549.5"/>
		<line class="st4" x1="54.8" y1="618.9" x2="865.8" y2="618.9"/>
		<line class="st4" x1="915.3" y1="618.9" x2="972.9" y2="618.9"/>
	</g>
	<g id="VisualIcon" transform="translate(95.505 132.611)" class="st5">
		<g id="VISUAL-ICON_Copy" transform="translate(0 0)">
			<g id="Group" transform="translate(0 0)">
				<path id="Path_3" class="st6" d="M-147-162.4c489.8-490.7,1582.4,40.2,1154,794"/>
				<path id="Path_2" class="st7" d="M-234.5-233.6l1343.6,936.5"/>
			</g>
		</g>
	</g>
	<rect x="52.8" y="208.4" class="st8" width="921.2" height="225.4"/>
	<rect x="53.7" y="96.3" class="st8" width="167.4" height="42.6"/>
	<line class="st9" x1="54.8" y1="178.5" x2="972.9" y2="178.5"/>
	<polygon class="st10" points="161.5,338.6 158.9,341.1 137.3,320.9 158.9,300.7 161.5,303.1 142.5,320.9 	"/>
	<polygon class="st10" points="863.6,338.6 866.2,341.1 887.8,320.9 866.2,300.7 863.6,303.1 882.6,320.9 	"/>
</g>
</svg>
