<?xml version="1.0" encoding="utf-8"?>
<!-- Generator: Adobe Illustrator 24.0.3, SVG Export Plug-In . SVG Version: 6.00 Build 0)  -->
<svg version="1.1" id="Capa_1" xmlns="http://www.w3.org/2000/svg" xmlns:xlink="http://www.w3.org/1999/xlink" x="0px" y="0px"
	 viewBox="0 0 128 128" style="enable-background:new 0 0 128 128;" xml:space="preserve">
<style type="text/css">
	.st0{clip-path:url(#Trazado_179_2_);}
	.st1{fill:#FFFFFF;stroke:#232438;}
	.st2{fill:none;stroke:#50D2C2;stroke-width:0.75;stroke-linecap:round;stroke-linejoin:round;stroke-miterlimit:10;}
	.st3{fill:none;stroke:#722BF4;stroke-width:0.75;stroke-miterlimit:10;}
	.st4{fill:none;stroke:#ED91FF;stroke-width:0.75;stroke-miterlimit:10;}
	.st5{opacity:0.5;clip-path:url(#Trazado_179_2_);}
	.st6{opacity:0.63;fill:#CCD3DD;enable-background:new    ;}
	.st7{fill:none;stroke:#50D2C2;stroke-width:0.25;stroke-linecap:round;stroke-linejoin:round;stroke-miterlimit:10;}
	.st8{opacity:0.63;clip-path:url(#Trazado_179_2_);fill:#CCD3DD;enable-background:new    ;}
	.st9{opacity:0.63;clip-path:url(#Trazado_179_2_);fill:none;stroke:#CCD3DD;stroke-miterlimit:10;enable-background:new    ;}
	.st10{clip-path:url(#Trazado_179_2_);fill:#FFFFFF;stroke:#FFFFFF;stroke-width:0.7228;stroke-miterlimit:10;}
</style>
<g>
	<defs>
		<path id="Trazado_179_1_" d="M1,103.4V24.6c0-1.8,2-3.3,4.5-3.3h117.1c2.5,0,4.5,1.5,4.5,3.3v78.7c0,1.8-2,3.3-4.5,3.3H5.5
			C3,106.6,1,105.2,1,103.4z"/>
	</defs>
	<clipPath id="Trazado_179_2_">
		<use xlink:href="#Trazado_179_1_"  style="overflow:visible;"/>
	</clipPath>
	<g id="Group-2" transform="translate(186.32 135.42)" class="st0">
		<g id="Grupo_239" transform="translate(0)">
			<path id="Trazado_179" class="st1" d="M-185.3-32.1v-78.7c0-1.8,2-3.3,4.5-3.3h117.1c2.5,0,4.5,1.5,4.5,3.3v78.7
				c0,1.8-2,3.3-4.5,3.3h-117.1C-183.3-28.8-185.3-30.3-185.3-32.1z"/>
		</g>
	</g>
	<g class="st0">
		<line class="st2" x1="6.3" y1="80.1" x2="82.6" y2="80.1"/>
		<line class="st2" x1="91.5" y1="80.1" x2="122.2" y2="80.1"/>
		<line class="st3" x1="6.3" y1="88.9" x2="94.1" y2="88.9"/>
		<line class="st3" x1="104.2" y1="88.9" x2="122.2" y2="88.9"/>
		<line class="st4" x1="6.3" y1="97.7" x2="108.7" y2="97.7"/>
		<line class="st4" x1="114.9" y1="97.7" x2="122.2" y2="97.7"/>
	</g>
	<g id="VisualIcon" transform="translate(95.505 132.611)" class="st5">
		<g id="VISUAL-ICON_Copy" transform="translate(0 0)">
			<g id="Group" transform="translate(0 0)">
				<path id="Path_3" class="st6" d="M-102.6-116.8c61.8-62,199.8,5.1,145.7,100.2"/>
				<path id="Path_2" class="st7" d="M-113.7-125.8L56-7.6"/>
			</g>
		</g>
	</g>
	<rect x="6" y="45.8" class="st8" width="116.3" height="28.5"/>
	<rect x="6.2" y="31.7" class="st8" width="21.1" height="5.4"/>
	<line class="st9" x1="6.3" y1="42.1" x2="122.2" y2="42.1"/>
	<polygon class="st10" points="19.8,62.3 19.4,62.6 16.7,60 19.4,57.5 19.8,57.8 17.4,60 	"/>
	<polygon class="st10" points="108.4,62.3 108.7,62.6 111.5,60 108.7,57.5 108.4,57.8 110.8,60 	"/>
</g>
</svg>
