<?xml version="1.0" encoding="utf-8"?>
<!-- Generator: Adobe Illustrator 24.0.3, SVG Export Plug-In . SVG Version: 6.00 Build 0)  -->
<svg version="1.1" id="Capa_1" xmlns="http://www.w3.org/2000/svg" xmlns:xlink="http://www.w3.org/1999/xlink" x="0px" y="0px"
	 viewBox="0 0 1024 1024" style="enable-background:new 0 0 1024 1024;" xml:space="preserve">
<style type="text/css">
	.st0{clip-path:url(#Trazado_179_2_);}
	.st1{fill:#FFFFFF;stroke:#232438;}
	.st2{fill:none;stroke:#50D2C2;stroke-width:6;stroke-linecap:round;stroke-linejoin:round;stroke-miterlimit:10;}
	.st3{fill:none;stroke:#722BF4;stroke-width:6;stroke-miterlimit:10;}
	.st4{fill:none;stroke:#ED91FF;stroke-width:6;stroke-miterlimit:10;}
	.st5{opacity:0.5;clip-path:url(#Trazado_179_2_);}
	.st6{opacity:0.63;fill:#CCD3DD;enable-background:new    ;}
	.st7{fill:none;stroke:#50D2C2;stroke-width:0.25;stroke-linecap:round;stroke-linejoin:round;stroke-miterlimit:10;}
	.st8{opacity:0.63;clip-path:url(#Trazado_179_2_);fill:#CCD3DD;enable-background:new    ;}
	.st9{opacity:0.63;clip-path:url(#Trazado_179_2_);fill:none;stroke:#CCD3DD;stroke-miterlimit:10;enable-background:new    ;}
	.st10{clip-path:url(#Trazado_179_2_);fill:#FFFFFF;stroke:#FFFFFF;stroke-width:0.7228;stroke-miterlimit:10;}
</style>
<g>
	<g>
		<defs>
			<path id="Trazado_179_1_" d="M12.8,823.7V200.3c0-14.3,16-25.8,35.7-25.8h927.1c19.7,0,35.7,11.6,35.7,25.8v623.4
				c0,14.3-16,25.8-35.7,25.8H48.4C28.7,849.5,12.8,838,12.8,823.7z"/>
		</defs>
		<clipPath id="Trazado_179_2_">
			<use xlink:href="#Trazado_179_1_"  style="overflow:visible;"/>
		</clipPath>
		<g id="Group-2" transform="translate(186.32 135.42)" class="st0">
			<g id="Grupo_239" transform="translate(0)">
				<path id="Trazado_179" class="st1" d="M-173.5,688.3V64.9c0-14.3,16-25.8,35.7-25.8h927.1c19.7,0,35.7,11.6,35.7,25.8v623.4
					c0,14.3-16,25.8-35.7,25.8h-927.1C-157.6,714.1-173.5,702.5-173.5,688.3z"/>
			</g>
		</g>
		<g class="st0">
			<line class="st2" x1="54.9" y1="639.9" x2="659.2" y2="639.9"/>
			<line class="st2" x1="729.5" y1="639.9" x2="973.1" y2="639.9"/>
			<line class="st3" x1="54.9" y1="709.2" x2="750.2" y2="709.2"/>
			<line class="st3" x1="830.5" y1="709.2" x2="973.1" y2="709.2"/>
			<line class="st4" x1="54.9" y1="778.6" x2="865.9" y2="778.6"/>
			<line class="st4" x1="915.4" y1="778.6" x2="973.1" y2="778.6"/>
		</g>
		<g id="VisualIcon" transform="translate(95.505 132.611)" class="st5">
			<g id="VISUAL-ICON_Copy" transform="translate(0 0)">
				<g id="Group" transform="translate(0 0)">
					<path id="Path_3" class="st6" d="M-146.8-2.7c489.8-490.7,1582.4,40.2,1154,794"/>
					<path id="Path_2" class="st7" d="M-234.4-73.9l1343.6,936.5"/>
				</g>
			</g>
		</g>
		<rect x="52.9" y="368.1" class="st8" width="921.2" height="225.4"/>
		<rect x="53.8" y="256" class="st8" width="167.4" height="42.6"/>
		<line class="st9" x1="54.9" y1="338.2" x2="973" y2="338.2"/>
		<polygon class="st10" points="161.7,498.3 159,500.8 137.4,480.6 159,460.4 161.7,462.8 142.7,480.6 		"/>
		<polygon class="st10" points="863.7,498.3 866.3,500.8 887.9,480.6 866.3,460.4 863.7,462.8 882.7,480.6 		"/>
	</g>
</g>
</svg>
