<?xml version="1.0" encoding="utf-8"?>
<!-- Generator: Adobe Illustrator 24.0.3, SVG Export Plug-In . SVG Version: 6.00 Build 0)  -->
<svg version="1.1" id="Capa_1" xmlns="http://www.w3.org/2000/svg" xmlns:xlink="http://www.w3.org/1999/xlink" x="0px" y="0px"
	 viewBox="0 0 32 32" style="enable-background:new 0 0 32 32;" xml:space="preserve">
<style type="text/css">
	.st0{clip-path:url(#Trazado_179_2_);}
	.st1{fill:#FFFFFF;stroke:#232438;}
	.st2{fill:none;stroke:#50D2C2;stroke-width:0.75;stroke-linecap:round;stroke-linejoin:round;stroke-miterlimit:10;}
	.st3{fill:none;stroke:#722BF4;stroke-width:0.75;stroke-miterlimit:10;}
	.st4{fill:none;stroke:#ED91FF;stroke-width:0.75;stroke-miterlimit:10;}
	.st5{opacity:0.5;clip-path:url(#Trazado_179_2_);}
	.st6{opacity:0.63;fill:#CCD3DD;enable-background:new    ;}
	.st7{fill:none;stroke:#50D2C2;stroke-width:0.25;stroke-linecap:round;stroke-linejoin:round;stroke-miterlimit:10;}
	.st8{opacity:0.63;clip-path:url(#Trazado_179_2_);fill:#CCD3DD;enable-background:new    ;}
	.st9{opacity:0.63;clip-path:url(#Trazado_179_2_);fill:none;stroke:#CCD3DD;stroke-miterlimit:10;enable-background:new    ;}
	.st10{clip-path:url(#Trazado_179_2_);fill:#FFFFFF;stroke:#FFFFFF;stroke-width:0.7228;stroke-miterlimit:10;}
</style>
<g>
	<defs>
		<path id="Trazado_179_1_" d="M0.9,25.4V6.6c0-0.4,0.5-0.8,1.1-0.8h28c0.6,0,1.1,0.3,1.1,0.8v18.8c0,0.4-0.5,0.8-1.1,0.8H2
			C1.4,26.2,0.9,25.9,0.9,25.4z"/>
	</defs>
	<clipPath id="Trazado_179_2_">
		<use xlink:href="#Trazado_179_1_"  style="overflow:visible;"/>
	</clipPath>
	<g id="Group-2" transform="translate(186.32 135.42)" class="st0">
		<g id="Grupo_239" transform="translate(0)">
			<path id="Trazado_179" class="st1" d="M-185.4-110v-18.8c0-0.4,0.5-0.8,1.1-0.8h28c0.6,0,1.1,0.3,1.1,0.8v18.8
				c0,0.4-0.5,0.8-1.1,0.8h-28C-184.9-109.2-185.4-109.6-185.4-110z"/>
		</g>
	</g>
	<g class="st0">
		<line class="st2" x1="2.2" y1="19.9" x2="20.4" y2="19.9"/>
		<line class="st2" x1="22.6" y1="19.9" x2="29.9" y2="19.9"/>
		<line class="st3" x1="2.2" y1="22" x2="23.2" y2="22"/>
		<line class="st3" x1="25.6" y1="22" x2="29.9" y2="22"/>
		<line class="st4" x1="2.2" y1="24.1" x2="26.7" y2="24.1"/>
		<line class="st4" x1="28.2" y1="24.1" x2="29.9" y2="24.1"/>
	</g>
	<g id="VisualIcon" transform="translate(95.505 132.611)" class="st5">
		<g id="VISUAL-ICON_Copy" transform="translate(0 0)">
			<g id="Group" transform="translate(0 0)">
				<path id="Path_3" class="st6" d="M-96.5-128.2c14.8-14.8,47.8,1.2,34.9,24"/>
				<path id="Path_2" class="st7" d="M-99.2-130.3l40.6,28.3"/>
			</g>
		</g>
	</g>
	<rect x="2.1" y="11.7" class="st8" width="27.8" height="6.8"/>
	<rect x="2.2" y="8.3" class="st8" width="5.1" height="1.3"/>
	<line class="st9" x1="2.2" y1="10.7" x2="29.9" y2="10.7"/>
	<polygon class="st10" points="5.4,15.6 5.3,15.7 4.7,15.1 5.3,14.4 5.4,14.5 4.8,15.1 	"/>
	<polygon class="st10" points="26.6,15.6 26.7,15.7 27.4,15.1 26.7,14.4 26.6,14.5 27.2,15.1 	"/>
</g>
</svg>
