<?xml version="1.0" encoding="utf-8"?>
<!-- Generator: Adobe Illustrator 24.0.3, SVG Export Plug-In . SVG Version: 6.00 Build 0)  -->
<svg version="1.1" id="Capa_1" xmlns="http://www.w3.org/2000/svg" xmlns:xlink="http://www.w3.org/1999/xlink" x="0px" y="0px"
	 viewBox="0 0 64 64" style="enable-background:new 0 0 64 64;" xml:space="preserve">
<style type="text/css">
	.st0{fill:#FFFFFF;}
	.st1{fill:#722BF4;}
	.st2{fill:#ED91FF;}
	.st3{opacity:0.63;fill:#CCD3DD;enable-background:new    ;}
	.st4{fill:#50D2C2;}
</style>
<g>
	<circle class="st0" cx="32" cy="32" r="30.1"/>
</g>
<g>
	<circle class="st1" cx="24.2" cy="16.5" r="1.2"/>
	<circle class="st1" cx="20" cy="16.5" r="1.2"/>
	<circle class="st1" cx="15.8" cy="16.5" r="1.2"/>
	<path class="st2" d="M25.1,31.5h-2.4c-0.2,0-0.4-0.2-0.4-0.4c0-0.2,0.2-0.4,0.4-0.4h2.4c0.2,0,0.4,0.2,0.4,0.4
		C25.5,31.3,25.3,31.5,25.1,31.5z"/>
	<path class="st2" d="M20.6,31.5h-6c-0.2,0-0.4-0.2-0.4-0.4c0-0.2,0.2-0.4,0.4-0.4h6c0.2,0,0.4,0.2,0.4,0.4
		C20.9,31.3,20.8,31.5,20.6,31.5z"/>
	<path class="st2" d="M25.1,39h-3.7c-0.2,0-0.4-0.2-0.4-0.4c0-0.2,0.2-0.4,0.4-0.4h3.7c0.2,0,0.4,0.2,0.4,0.4
		C25.5,38.8,25.3,39,25.1,39z"/>
	<path class="st2" d="M20,39h-5.5c-0.2,0-0.4-0.2-0.4-0.4c0-0.2,0.2-0.4,0.4-0.4H20c0.2,0,0.4,0.2,0.4,0.4C20.4,38.8,20.2,39,20,39z
		"/>
	<path class="st2" d="M25.1,46.5h-3.7c-0.2,0-0.4-0.2-0.4-0.4c0-0.2,0.2-0.4,0.4-0.4h3.7c0.2,0,0.4,0.2,0.4,0.4
		C25.5,46.3,25.3,46.5,25.1,46.5z"/>
	<path class="st2" d="M20,46.5h-5.5c-0.2,0-0.4-0.2-0.4-0.4c0-0.2,0.2-0.4,0.4-0.4H20c0.2,0,0.4,0.2,0.4,0.4
		C20.4,46.3,20.2,46.5,20,46.5z"/>
	<path class="st1" d="M17.9,27.9c0.1,0,0.2,0,0.3-0.1c0.1-0.1,0.1-0.2,0.1-0.3c0-0.1,0-0.2-0.1-0.2c0-0.1-0.1-0.1-0.2-0.2l-2.8-1.1
		l2.8-1.1c0.2-0.1,0.3-0.2,0.3-0.4c0-0.1,0-0.2-0.1-0.3C18.1,24,18,24,17.9,24c-0.1,0-0.2,0-0.3,0.1l-3,1.2
		c-0.1,0.1-0.3,0.1-0.3,0.3c-0.1,0.1-0.1,0.3-0.1,0.4c0,0.1,0,0.3,0.1,0.4c0.1,0.1,0.2,0.2,0.3,0.3l3,1.2
		C17.7,27.9,17.8,27.9,17.9,27.9L17.9,27.9z"/>
	<path class="st1" d="M19.2,29c0.1,0,0.2,0,0.3-0.1c0.1-0.1,0.2-0.2,0.2-0.3l2-6.2c0-0.1,0-0.1,0-0.2c0-0.1-0.1-0.3-0.2-0.3
		c-0.1-0.1-0.2-0.1-0.4-0.1c-0.2,0-0.4,0.1-0.5,0.4l-2,6.2c0,0.1,0,0.1,0,0.2c0,0.1,0.1,0.3,0.2,0.3C19,29,19.1,29,19.2,29L19.2,29z
		"/>
	<path class="st1" d="M22.2,27.2c0,0.1-0.1,0.1-0.1,0.2c0,0.1,0,0.2,0.1,0.3c0.1,0.1,0.2,0.1,0.3,0.1c0.1,0,0.2,0,0.2-0.1l3-1.2
		c0.1-0.1,0.3-0.2,0.3-0.3c0.1-0.1,0.1-0.3,0.1-0.4c0-0.1,0-0.3-0.1-0.4c-0.1-0.1-0.2-0.2-0.3-0.3l-3-1.2c-0.1,0-0.2-0.1-0.3-0.1
		c-0.1,0-0.2,0-0.3,0.1c-0.1,0.1-0.1,0.2-0.1,0.3c0,0.2,0.1,0.3,0.3,0.4l2.8,1.1l-2.8,1.1C22.3,27.1,22.2,27.1,22.2,27.2L22.2,27.2z
		"/>
	<path class="st3" d="M52.5,24.8c-0.2,0-0.4,0.2-0.4,0.4v3c0,0.2,0.2,0.4,0.4,0.4s0.4-0.2,0.4-0.4v-3C52.9,25,52.7,24.8,52.5,24.8z"
		/>
	<path class="st3" d="M51.1,13.1H32.4V11c0-0.2-0.2-0.4-0.4-0.4c-0.2,0-0.4,0.2-0.4,0.4v2.1H12.9c-1,0-1.8,0.8-1.8,1.8v34.2
		c0,1,0.8,1.8,1.8,1.8h18.7V53c0,0.2,0.2,0.4,0.4,0.4c0.2,0,0.4-0.2,0.4-0.4v-2.1h18.7c1,0,1.8-0.8,1.8-1.8V29.7
		c0-0.2-0.2-0.4-0.4-0.4s-0.4,0.2-0.4,0.4v19.4c0,0.6-0.5,1.1-1.1,1.1H32.4V19.5h19.8v4.1c0,0.2,0.2,0.4,0.4,0.4s0.4-0.2,0.4-0.4
		v-8.7C52.8,13.9,52,13.1,51.1,13.1L51.1,13.1z M11.9,14.9c0-0.6,0.5-1.1,1.1-1.1h18.7v5H11.9V14.9z M12.9,50.2
		c-0.6,0-1.1-0.5-1.1-1.1V19.5h19.8v13.7h-3.4c-0.2,0-0.4,0.2-0.4,0.4s0.2,0.4,0.4,0.4h3.4v1.8H17.1c-0.2,0-0.4,0.2-0.4,0.4
		s0.2,0.4,0.4,0.4h14.6v4.3h-7c-0.2,0-0.4,0.2-0.4,0.4c0,0.2,0.2,0.4,0.4,0.4h7v1.8h-4.8c-0.2,0-0.4,0.2-0.4,0.4s0.2,0.4,0.4,0.4
		h4.8v6.2L12.9,50.2z M32.4,18.8v-5h18.7c0.6,0,1.1,0.5,1.1,1.1v3.9H32.4z"/>
	<path class="st4" d="M26,33.3h-9c-0.2,0-0.4,0.2-0.4,0.4s0.2,0.4,0.4,0.4h9c0.2,0,0.4-0.2,0.4-0.4S26.2,33.3,26,33.3z"/>
	<path class="st4" d="M17.1,41.5h5.4c0.2,0,0.4-0.2,0.4-0.4c0-0.2-0.2-0.4-0.4-0.4h-5.4c-0.2,0-0.4,0.2-0.4,0.4
		C16.7,41.3,16.9,41.5,17.1,41.5z"/>
	<path class="st4" d="M25,43.3h-8c-0.2,0-0.4,0.2-0.4,0.4s0.2,0.4,0.4,0.4h8c0.2,0,0.4-0.2,0.4-0.4S25.2,43.3,25,43.3z"/>
	<path class="st4" d="M49.9,23.2c0-0.6-0.5-1.1-1.1-1.1H35.2c-0.6,0-1.1,0.5-1.1,1.1v5.6c0,0.6,0.5,1.1,1.1,1.1h13.6
		c0.6,0,1.1-0.5,1.1-1.1L49.9,23.2z M49.1,28.8c0,0.2-0.2,0.4-0.4,0.4H35.2c-0.2,0-0.4-0.2-0.4-0.4v-5.6c0-0.2,0.2-0.4,0.4-0.4h13.6
		c0.2,0,0.4,0.2,0.4,0.4L49.1,28.8z"/>
	<path class="st4" d="M49.9,41v-8.9c0-0.6-0.5-1.1-1.1-1.1H35.2c-0.6,0-1.1,0.5-1.1,1.1V41c0,0.6,0.5,1.1,1.1,1.1h13.6
		C49.4,42.1,49.9,41.6,49.9,41L49.9,41z M35.2,31.8h13.6c0.2,0,0.4,0.2,0.4,0.4v5.5l-1.9-1.4c-0.1-0.1-0.3-0.1-0.4,0l-2,1.6l-5-3.7
		c-0.1-0.1-0.3-0.1-0.4,0l-4.5,3.4v-5.4C34.9,31.9,35,31.8,35.2,31.8L35.2,31.8z M48.8,41.4H35.2c-0.2,0-0.4-0.2-0.4-0.4v-2.5
		l4.7-3.6l5,3.7c0.1,0.1,0.3,0.1,0.4,0l2-1.6l2.1,1.5V41C49.1,41.2,49,41.4,48.8,41.4L48.8,41.4z"/>
	<path class="st4" d="M44.6,35.8c0.9,0,1.6-0.7,1.6-1.6c0-0.9-0.7-1.6-1.6-1.6c-0.9,0-1.6,0.7-1.6,1.6C43,35.1,43.7,35.8,44.6,35.8z
		 M44.6,33.3c0.5,0,0.9,0.4,0.9,0.9c0,0.5-0.4,0.9-0.9,0.9s-0.9-0.4-0.9-0.9C43.7,33.7,44.1,33.3,44.6,33.3z"/>
	<path class="st4" d="M48.9,43.9H35.1c-0.2,0-0.4,0.2-0.4,0.4c0,0.2,0.2,0.4,0.4,0.4h13.8c0.2,0,0.4-0.2,0.4-0.4
		C49.3,44,49.1,43.9,48.9,43.9z"/>
	<path class="st4" d="M48.9,46.9H35.1c-0.2,0-0.4,0.2-0.4,0.4c0,0.2,0.2,0.4,0.4,0.4h13.8c0.2,0,0.4-0.2,0.4-0.4
		C49.3,47,49.1,46.9,48.9,46.9z"/>
</g>
</svg>
