<?xml version="1.0" encoding="utf-8"?>
<!-- Generator: Adobe Illustrator 24.0.3, SVG Export Plug-In . SVG Version: 6.00 Build 0)  -->
<svg version="1.1" id="Capa_1" xmlns="http://www.w3.org/2000/svg" xmlns:xlink="http://www.w3.org/1999/xlink" x="0px" y="0px"
	 viewBox="0 0 64 64" style="enable-background:new 0 0 64 64;" xml:space="preserve">
<style type="text/css">
	.st0{opacity:0.63;fill:#FFFFFF;enable-background:new    ;}
	.st1{fill:#722BF4;}
	.st2{fill:#ED91FF;}
	.st3{opacity:0.63;fill:#CCD3DD;enable-background:new    ;}
	.st4{fill:#50D2C2;}
</style>
<path class="st0" d="M31.5,33.8h-4.9c-0.3,0-0.5,0.2-0.5,0.5c0,0.3,0.2,0.5,0.5,0.5h4.9v2.6H10.6c-0.3,0-0.5,0.2-0.5,0.5
	c0,0.3,0.2,0.5,0.5,0.5h20.9v6.1h-10c-0.3,0-0.5,0.2-0.5,0.5s0.2,0.5,0.5,0.5h10v2.6h-6.9c-0.3,0-0.5,0.2-0.5,0.5s0.2,0.5,0.5,0.5
	h6.9V58L4.7,58c-0.8,0-1.5-0.7-1.5-1.5V14.2h28.3V33.8z M31.5,13.1H3.2V7.5C3.2,6.7,3.8,6,4.7,6h26.8V13.1z M32.5,6h26.8
	c0.8,0,1.5,0.7,1.5,1.5v5.6H32.5V6z M60.8,56.5c0,0.8-0.7,1.5-1.5,1.5H32.5V14.2h28.3v4.6V20V56.5z"/>
<g>
	<circle class="st1" cx="20.9" cy="9.8" r="1.7"/>
	<circle class="st1" cx="14.8" cy="9.8" r="1.7"/>
	<circle class="st1" cx="8.8" cy="9.8" r="1.7"/>
	<path class="st2" d="M22.2,31.2h-3.5c-0.3,0-0.5-0.2-0.5-0.5s0.2-0.5,0.5-0.5h3.5c0.3,0,0.5,0.2,0.5,0.5S22.5,31.2,22.2,31.2z"/>
	<path class="st2" d="M15.6,31.2H7c-0.3,0-0.5-0.2-0.5-0.5s0.2-0.5,0.5-0.5h8.6c0.3,0,0.5,0.2,0.5,0.5S15.9,31.2,15.6,31.2z"/>
	<path class="st2" d="M22.2,42h-5.3c-0.3,0-0.5-0.2-0.5-0.5s0.2-0.5,0.5-0.5h5.3c0.3,0,0.5,0.2,0.5,0.5S22.5,42,22.2,42z"/>
	<path class="st2" d="M14.9,42H7c-0.3,0-0.5-0.2-0.5-0.5S6.7,41,7,41h7.9c0.3,0,0.5,0.2,0.5,0.5S15.1,42,14.9,42z"/>
	<path class="st2" d="M22.2,52.7h-5.3c-0.3,0-0.5-0.2-0.5-0.5s0.2-0.5,0.5-0.5h5.3c0.3,0,0.5,0.2,0.5,0.5S22.5,52.7,22.2,52.7z"/>
	<path class="st2" d="M14.9,52.7H7c-0.3,0-0.5-0.2-0.5-0.5s0.2-0.5,0.5-0.5h7.9c0.3,0,0.5,0.2,0.5,0.5S15.1,52.7,14.9,52.7z"/>
	<path class="st1" d="M11.7,26.1c0.2,0,0.3-0.1,0.5-0.2c0.1-0.1,0.2-0.3,0.2-0.5c0-0.1,0-0.2-0.1-0.3C12.2,25,12.2,25,12,24.9
		l-4-1.6l4-1.6c0.2-0.1,0.4-0.3,0.4-0.5c0-0.2-0.1-0.4-0.2-0.5c-0.1-0.1-0.3-0.2-0.5-0.2c-0.1,0-0.2,0-0.4,0.1l-4.3,1.8
		c-0.2,0.1-0.4,0.2-0.5,0.4c-0.1,0.2-0.2,0.4-0.2,0.6c0,0.2,0.1,0.4,0.2,0.6c0.1,0.2,0.3,0.3,0.5,0.4l4.3,1.8
		C11.5,26.1,11.6,26.1,11.7,26.1L11.7,26.1z"/>
	<path class="st1" d="M13.7,27.8c0.2,0,0.3,0,0.4-0.1c0.1-0.1,0.2-0.2,0.3-0.4l2.8-8.8c0-0.1,0-0.2,0-0.3c0-0.2-0.1-0.4-0.2-0.5
		c-0.1-0.1-0.3-0.2-0.5-0.2c-0.3,0-0.6,0.2-0.7,0.5L13,26.8c0,0.1,0,0.2,0,0.3c0,0.2,0.1,0.4,0.2,0.5C13.3,27.7,13.5,27.8,13.7,27.8
		L13.7,27.8z"/>
	<path class="st1" d="M17.9,25.1c-0.1,0.1-0.1,0.2-0.1,0.3c0,0.2,0.1,0.4,0.2,0.5c0.1,0.1,0.3,0.2,0.5,0.2c0.1,0,0.2,0,0.3-0.1
		l4.3-1.8c0.2-0.1,0.4-0.2,0.5-0.4c0.1-0.2,0.2-0.4,0.2-0.6c0-0.2-0.1-0.4-0.2-0.6c-0.1-0.2-0.3-0.3-0.5-0.4l-4.3-1.8
		c-0.1,0-0.2-0.1-0.4-0.1c-0.2,0-0.3,0.1-0.5,0.2c-0.1,0.1-0.2,0.3-0.2,0.5c0,0.2,0.1,0.4,0.4,0.5l4,1.6l-4,1.6
		C18.1,25,18,25,17.9,25.1L17.9,25.1z"/>
	<path class="st3" d="M61.4,21.7c-0.3,0-0.5,0.2-0.5,0.5v4.4c0,0.3,0.2,0.5,0.5,0.5s0.5-0.2,0.5-0.5v-4.4
		C61.9,22,61.6,21.7,61.4,21.7z"/>
	<path class="st3" d="M59.3,4.9H32.5v-3c0-0.3-0.2-0.5-0.5-0.5s-0.5,0.2-0.5,0.5v3H4.7c-1.4,0-2.6,1.1-2.6,2.6v49
		c0,1.4,1.1,2.6,2.6,2.6h26.8v3c0,0.3,0.2,0.5,0.5,0.5s0.5-0.2,0.5-0.5v-3h26.8c1.4,0,2.6-1.1,2.6-2.6V28.8c0-0.3-0.2-0.5-0.5-0.5
		s-0.5,0.2-0.5,0.5v27.7c0,0.8-0.7,1.5-1.5,1.5H32.5V14.2h28.3V20c0,0.3,0.2,0.5,0.5,0.5s0.5-0.2,0.5-0.5V7.5
		C61.9,6.1,60.7,4.9,59.3,4.9L59.3,4.9z M3.2,7.5C3.2,6.7,3.8,6,4.7,6h26.8v7.2H3.2V7.5z M4.7,58c-0.8,0-1.5-0.7-1.5-1.5V14.2h28.3
		v19.6h-4.9c-0.3,0-0.5,0.2-0.5,0.5s0.2,0.5,0.5,0.5h4.9v2.6H10.6c-0.3,0-0.5,0.2-0.5,0.5s0.2,0.5,0.5,0.5h20.9v6.1h-10
		c-0.3,0-0.5,0.2-0.5,0.5c0,0.3,0.2,0.5,0.5,0.5h10v2.6h-6.9c-0.3,0-0.5,0.2-0.5,0.5s0.2,0.5,0.5,0.5h6.9V58L4.7,58z M32.5,13.1V6
		h26.8c0.8,0,1.5,0.7,1.5,1.5v5.6H32.5z"/>
	<path class="st4" d="M23.5,33.8H10.6c-0.3,0-0.5,0.2-0.5,0.5s0.2,0.5,0.5,0.5h12.9c0.3,0,0.5-0.2,0.5-0.5S23.8,33.8,23.5,33.8z"/>
	<path class="st4" d="M10.6,45.6h7.8c0.3,0,0.5-0.2,0.5-0.5c0-0.3-0.2-0.5-0.5-0.5h-7.8c-0.3,0-0.5,0.2-0.5,0.5
		C10.1,45.3,10.3,45.6,10.6,45.6z"/>
	<path class="st4" d="M22,48.1H10.6c-0.3,0-0.5,0.2-0.5,0.5s0.2,0.5,0.5,0.5H22c0.3,0,0.5-0.2,0.5-0.5S22.3,48.1,22,48.1z"/>
	<path class="st4" d="M57.6,19.4c0-0.8-0.7-1.5-1.5-1.5H36.6c-0.8,0-1.5,0.7-1.5,1.5v8c0,0.8,0.7,1.5,1.5,1.5h19.4
		c0.8,0,1.5-0.7,1.5-1.5L57.6,19.4z M56.6,27.4c0,0.3-0.2,0.5-0.5,0.5H36.6c-0.3,0-0.5-0.2-0.5-0.5v-8c0-0.3,0.2-0.5,0.5-0.5h19.4
		c0.3,0,0.5,0.2,0.5,0.5L56.6,27.4z"/>
	<path class="st4" d="M57.6,44.9V32.2c0-0.8-0.7-1.5-1.5-1.5H36.6c-0.8,0-1.5,0.7-1.5,1.5v12.7c0,0.8,0.7,1.5,1.5,1.5h19.4
		C56.9,46.4,57.6,45.8,57.6,44.9L57.6,44.9z M36.6,31.7h19.4c0.3,0,0.5,0.2,0.5,0.5V40l-2.8-2c-0.2-0.1-0.4-0.1-0.6,0l-2.8,2.3
		l-7.2-5.3c-0.2-0.1-0.4-0.1-0.6,0L36.1,40v-7.8C36.1,31.9,36.3,31.7,36.6,31.7L36.6,31.7z M56.1,45.4H36.6c-0.3,0-0.5-0.2-0.5-0.5
		v-3.6l6.7-5.2l7.2,5.3c0.2,0.1,0.4,0.1,0.6,0l2.9-2.3l3,2.2v3.6C56.6,45.2,56.3,45.4,56.1,45.4L56.1,45.4z"/>
	<path class="st4" d="M50,37.4c1.3,0,2.3-1,2.3-2.3s-1-2.3-2.3-2.3s-2.3,1-2.3,2.3S48.8,37.4,50,37.4z M50,33.8
		c0.7,0,1.3,0.6,1.3,1.3s-0.6,1.3-1.3,1.3s-1.3-0.6-1.3-1.3S49.3,33.8,50,33.8z"/>
	<path class="st4" d="M56.2,49H36.5c-0.3,0-0.5,0.2-0.5,0.5s0.2,0.5,0.5,0.5h19.8c0.3,0,0.5-0.2,0.5-0.5S56.5,49,56.2,49z"/>
	<path class="st4" d="M56.2,53.3H36.5c-0.3,0-0.5,0.2-0.5,0.5s0.2,0.5,0.5,0.5h19.8c0.3,0,0.5-0.2,0.5-0.5S56.5,53.3,56.2,53.3z"/>
</g>
</svg>
