<?xml version="1.0" encoding="utf-8"?>
<!-- Generator: Adobe Illustrator 24.0.3, SVG Export Plug-In . SVG Version: 6.00 Build 0)  -->
<svg version="1.1" id="Capa_1" xmlns="http://www.w3.org/2000/svg" xmlns:xlink="http://www.w3.org/1999/xlink" x="0px" y="0px"
	 viewBox="0 0 16 16" style="enable-background:new 0 0 16 16;" xml:space="preserve">
<style type="text/css">
	.st0{clip-path:url(#Trazado_179_2_);}
	.st1{fill:#FFFFFF;stroke:#232438;}
	.st2{fill:none;stroke:#50D2C2;stroke-width:0.75;stroke-linecap:round;stroke-linejoin:round;stroke-miterlimit:10;}
	.st3{fill:none;stroke:#722BF4;stroke-width:0.75;stroke-miterlimit:10;}
	.st4{fill:none;stroke:#ED91FF;stroke-width:0.75;stroke-miterlimit:10;}
	.st5{opacity:0.5;clip-path:url(#Trazado_179_2_);}
	.st6{opacity:0.63;fill:#CCD3DD;enable-background:new    ;}
	.st7{fill:none;stroke:#50D2C2;stroke-width:0.25;stroke-linecap:round;stroke-linejoin:round;stroke-miterlimit:10;}
	.st8{opacity:0.63;clip-path:url(#Trazado_179_2_);fill:#CCD3DD;enable-background:new    ;}
	.st9{opacity:0.63;clip-path:url(#Trazado_179_2_);fill:none;stroke:#CCD3DD;stroke-miterlimit:10;enable-background:new    ;}
	.st10{clip-path:url(#Trazado_179_2_);fill:#FFFFFF;stroke:#FFFFFF;stroke-width:0.7228;stroke-miterlimit:10;}
</style>
<g>
	<defs>
		<path id="Trazado_179_1_" d="M0.2,12.9V3.1c0-0.2,0.3-0.4,0.6-0.4h14.5c0.3,0,0.6,0.2,0.6,0.4v9.8c0,0.2-0.3,0.4-0.6,0.4H0.7
			C0.4,13.3,0.2,13.1,0.2,12.9z"/>
	</defs>
	<clipPath id="Trazado_179_2_">
		<use xlink:href="#Trazado_179_1_"  style="overflow:visible;"/>
	</clipPath>
	<g id="Group-2" transform="translate(186.32 135.42)" class="st0">
		<g id="Grupo_239" transform="translate(0)">
			<path id="Trazado_179" class="st1" d="M-186.1-122.5v-9.8c0-0.2,0.3-0.4,0.6-0.4h14.5c0.3,0,0.6,0.2,0.6,0.4v9.8
				c0,0.2-0.3,0.4-0.6,0.4h-14.5C-185.9-122.1-186.1-122.3-186.1-122.5z"/>
		</g>
	</g>
	<g class="st0">
		<line class="st2" x1="0.8" y1="10" x2="10.3" y2="10"/>
		<line class="st2" x1="11.4" y1="10" x2="15.2" y2="10"/>
		<line class="st3" x1="0.8" y1="11.1" x2="11.7" y2="11.1"/>
		<line class="st3" x1="13" y1="11.1" x2="15.2" y2="11.1"/>
		<line class="st4" x1="0.8" y1="12.2" x2="13.5" y2="12.2"/>
		<line class="st4" x1="14.3" y1="12.2" x2="15.2" y2="12.2"/>
	</g>
	<g id="VisualIcon" transform="translate(95.505 132.611)" class="st5">
		<g id="VISUAL-ICON_Copy" transform="translate(0 0)">
			<g id="Group" transform="translate(0 0)">
				<path id="Path_3" class="st6" d="M-96.3-130.6c7.7-7.7,24.8,0.6,18.1,12.4"/>
				<path id="Path_2" class="st7" d="M-97.7-131.7l21.1,14.7"/>
			</g>
		</g>
	</g>
	<rect x="0.8" y="5.7" class="st8" width="14.4" height="3.5"/>
	<rect x="0.8" y="4" class="st8" width="2.6" height="0.7"/>
	<line class="st9" x1="0.8" y1="5.3" x2="15.2" y2="5.3"/>
	<polygon class="st10" points="2.5,7.8 2.5,7.8 2.1,7.5 2.5,7.2 2.5,7.2 2.2,7.5 	"/>
	<polygon class="st10" points="13.5,7.8 13.6,7.8 13.9,7.5 13.6,7.2 13.5,7.2 13.8,7.5 	"/>
</g>
</svg>
