<?xml version="1.0" encoding="utf-8"?>
<!-- Generator: Adobe Illustrator 24.0.3, SVG Export Plug-In . SVG Version: 6.00 Build 0)  -->
<svg version="1.1" id="Capa_1" xmlns="http://www.w3.org/2000/svg" xmlns:xlink="http://www.w3.org/1999/xlink" x="0px" y="0px"
	 viewBox="0 0 64 64" style="enable-background:new 0 0 64 64;" xml:space="preserve">
<style type="text/css">
	.st0{fill:#FFFFFF;}
	.st1{clip-path:url(#SVGID_2_);}
	.st2{fill:none;stroke:#50D2C2;stroke-width:0.75;stroke-linecap:round;stroke-linejoin:round;stroke-miterlimit:10;}
	.st3{fill:none;stroke:#722BF4;stroke-width:0.75;stroke-miterlimit:10;}
	.st4{fill:none;stroke:#ED91FF;stroke-width:0.75;stroke-miterlimit:10;}
	.st5{opacity:0.63;clip-path:url(#SVGID_4_);fill:#CCD3DD;enable-background:new    ;}
	.st6{opacity:0.63;clip-path:url(#SVGID_6_);fill:#CCD3DD;enable-background:new    ;}
	.st7{opacity:0.63;clip-path:url(#SVGID_8_);fill:none;stroke:#CCD3DD;stroke-miterlimit:10;enable-background:new    ;}
	.st8{clip-path:url(#SVGID_10_);fill:#FFFFFF;stroke:#FFFFFF;stroke-width:0.7228;stroke-miterlimit:10;}
	.st9{clip-path:url(#SVGID_12_);fill:#FFFFFF;stroke:#FFFFFF;stroke-width:0.7228;stroke-miterlimit:10;}
</style>
<g>
	<circle class="st0" cx="22.5" cy="32" r="20.8"/>
	<g>
		<g>
			<defs>
				<path id="SVGID_1_" d="M20.7,49.1V13c0-0.8,0.7-1.5,1.5-1.5h38.8c0.8,0,1.5,0.6,1.5,1.5v36.2c0,0.8-0.7,1.5-1.5,1.5H22.1
					C21.3,50.7,20.7,49.9,20.7,49.1z"/>
			</defs>
			<clipPath id="SVGID_2_">
				<use xlink:href="#SVGID_1_"  style="overflow:visible;"/>
			</clipPath>
			<g class="st1">
				<line class="st2" x1="22.4" y1="38.4" x2="47.7" y2="38.4"/>
				<line class="st2" x1="50.6" y1="38.4" x2="60.8" y2="38.4"/>
				<line class="st3" x1="22.4" y1="42.5" x2="51.5" y2="42.5"/>
				<line class="st3" x1="54.9" y1="42.5" x2="60.8" y2="42.5"/>
				<line class="st4" x1="22.4" y1="46.5" x2="56.3" y2="46.5"/>
				<line class="st4" x1="58.4" y1="46.5" x2="60.8" y2="46.5"/>
			</g>
		</g>
		<g>
			<defs>
				<path id="SVGID_3_" d="M20.7,49.1V13c0-0.8,0.7-1.5,1.5-1.5h38.8c0.8,0,1.5,0.6,1.5,1.5v36.2c0,0.8-0.7,1.5-1.5,1.5H22.1
					C21.3,50.7,20.7,49.9,20.7,49.1z"/>
			</defs>
			<clipPath id="SVGID_4_">
				<use xlink:href="#SVGID_3_"  style="overflow:visible;"/>
			</clipPath>
			<rect x="22.3" y="22.7" class="st5" width="38.6" height="13.1"/>
		</g>
		<g>
			<defs>
				<path id="SVGID_5_" d="M20.7,49.1V13c0-0.8,0.7-1.5,1.5-1.5h38.8c0.8,0,1.5,0.6,1.5,1.5v36.2c0,0.8-0.7,1.5-1.5,1.5H22.1
					C21.3,50.7,20.7,49.9,20.7,49.1z"/>
			</defs>
			<clipPath id="SVGID_6_">
				<use xlink:href="#SVGID_5_"  style="overflow:visible;"/>
			</clipPath>
			<rect x="22.4" y="16.2" class="st6" width="7" height="2.5"/>
		</g>
		<g>
			<defs>
				<path id="SVGID_7_" d="M20.7,49.1V13c0-0.8,0.7-1.5,1.5-1.5h38.8c0.8,0,1.5,0.6,1.5,1.5v36.2c0,0.8-0.7,1.5-1.5,1.5H22.1
					C21.3,50.7,20.7,49.9,20.7,49.1z"/>
			</defs>
			<clipPath id="SVGID_8_">
				<use xlink:href="#SVGID_7_"  style="overflow:visible;"/>
			</clipPath>
			<line class="st7" x1="22.4" y1="20.9" x2="60.8" y2="20.9"/>
		</g>
		<g>
			<defs>
				<path id="SVGID_9_" d="M20.7,49.1V13c0-0.8,0.7-1.5,1.5-1.5h38.8c0.8,0,1.5,0.6,1.5,1.5v36.2c0,0.8-0.7,1.5-1.5,1.5H22.1
					C21.3,50.7,20.7,49.9,20.7,49.1z"/>
			</defs>
			<clipPath id="SVGID_10_">
				<use xlink:href="#SVGID_9_"  style="overflow:visible;"/>
			</clipPath>
			<polygon class="st8" points="26.9,30.2 26.8,30.4 25.9,29.2 26.8,28.1 26.9,28.2 26.1,29.2 			"/>
		</g>
		<g>
			<defs>
				<path id="SVGID_11_" d="M20.7,49.1V13c0-0.8,0.7-1.5,1.5-1.5h38.8c0.8,0,1.5,0.6,1.5,1.5v36.2c0,0.8-0.7,1.5-1.5,1.5H22.1
					C21.3,50.7,20.7,49.9,20.7,49.1z"/>
			</defs>
			<clipPath id="SVGID_12_">
				<use xlink:href="#SVGID_11_"  style="overflow:visible;"/>
			</clipPath>
			<polygon class="st9" points="56.2,30.2 56.3,30.4 57.3,29.2 56.3,28.1 56.2,28.2 57,29.2 			"/>
		</g>
	</g>
</g>
</svg>
